<svg xmlns="http://www.w3.org/2000/svg" width="1920" viewBox="0 0 1440 810" height="1080" version="1.0"><defs><clipPath id="h"><path d="M72 700h61v74.41H72zm0 0"/></clipPath><clipPath id="a"><path d="M132 680h36v94.41h-36zm0 0"/></clipPath><clipPath id="c"><path d="M96 680h37v94.41H96zm0 0"/></clipPath><clipPath id="d"><path d="M60.113 736H133v38.41H60.113zm0 0"/></clipPath><clipPath id="e"><path d="M132 700h61v74.41h-61zm0 0"/></clipPath><clipPath id="f"><path d="M132 756h66v18.41h-66zm0 0"/></clipPath><clipPath id="g"><path d="M123 661.91h19v112.5h-19zm0 0"/></clipPath><clipPath id="b"><path d="M132 736h72.863v38.41H132zm0 0"/></clipPath><clipPath id="i"><path d="M67 756h66v18.41H67zm0 0"/></clipPath><clipPath id="j"><path d="M37 772h72.77v38H37zm0 0"/></clipPath><clipPath id="k"><path d="M28 697.574h19V810H28zm0 0"/></clipPath><clipPath id="l"><path d="M182 792h72.836v18H182zm0 0"/></clipPath><clipPath id="m"><path d="M110.086 792H183v18h-72.914zm0 0"/></clipPath><clipPath id="n"><path d="M173 718.125h19V810h-19zm0 0"/></clipPath></defs><path fill="#32889a" d="m148.41 712.074-1.418-32.394-10.554 32.394 3.46 32.438 8.512-32.438M166.563 723.672l9.207-24.828-16.336 13.074-17.008 42.16 24.137-30.406M169.309 730.95l22.14-6.927-17.781 17.582-26.293 17.954 21.934-28.61M116.523 712.074l1.422-32.394 10.555 32.394-4.121 29.793-7.856-29.793M98.375 723.672l-9.207-24.828 16.336 13.074 17.008 42.16-24.137-30.406M95.629 730.95l-22.14-6.927 17.78 17.582 26.293 17.954-21.933-28.61"/><path fill="#2b738e" d="M144.227 736.719V704.89l-5.579 19.132-12.136 2.438-5.61-21.57v25.172l-20.988-16.524 5.926 23.844 1.37 4.484-16.987-7.734 12.316 15.168 21.793 15.91 29.11-9.203 22.328-22.383-15.317 5.594 4.57-24.922-20.796 22.422"/><g clip-path="url(#a)"><path fill="#3da9ae" d="m132.469 774.41 14.523-60.23 20.996-33.996-9.773 42.765-19.145 51.461h-6.601"/></g><g clip-path="url(#b)"><path fill="#3da9ae" d="m204.828 736.719-34.148 3.304-38.211 34.387h6.601l35.04-24.867 30.718-12.824"/></g><g clip-path="url(#c)"><path fill="#3da9ae" d="m132.469 774.41-14.524-60.23-21-33.996 9.778 42.765 19.144 51.461h6.602"/></g><g clip-path="url(#d)"><path fill="#3da9ae" d="m60.11 736.719 34.148 3.304 38.21 34.387h-6.6l-35.04-24.867-30.719-12.824"/></g><path fill="#3799a2" d="m141.723 762.621 13.015-49.164-17.43 49.164H128.5l-19.45-50.531 14.165 48.347-2.176 5.446L93.73 746.05l-24.148-6.403 23.422 9.25 27.238 20 26.38 1.524 27-23.274 20.335-7.101-21.789 5.64-28.324 20.399-2.121-3.465"/><g clip-path="url(#e)"><path fill="#66ccc6" d="m132.469 774.41 27.558-47.34 32.305-26.715-24.66 37.438-28.602 36.617h-6.601"/></g><g clip-path="url(#f)"><path fill="#66ccc6" d="m197.578 771.105-33.89-3.253-24.618 6.558h-6.601l31.523-18.402 33.586 15.097"/></g><g clip-path="url(#g)"><path fill="#66ccc6" d="m132.469 661.91-9.254 62.574 2.652 49.926h13.203l2.653-49.926-9.254-62.574"/></g><g clip-path="url(#h)"><path fill="#66ccc6" d="m132.469 774.41-27.559-47.34-32.3-26.715 24.656 37.438 28.601 36.617h6.602"/></g><g clip-path="url(#i)"><path fill="#66ccc6" d="m67.355 771.105 33.895-3.253 24.617 6.558h6.602l-31.524-18.402-33.59 15.097"/></g><path fill="#43bdba" d="m139.07 773.086 24.907-8.793 23.062 4.066-23.32-6.992-22.98 9.059 25.605-33.707 17.539-26.606-21.485 25.285-24.644 34.122-3.215-5.075-.738-12.004-1.332-39.078-1.336 38.895-.778 12.355-2.976 4.887-21.54-30.324-21.304-23.551 17.344 25.367 22.828 29.66-24.793-9.738-25.504 9.004 26.16-5.414 26.586 8.64 11.914-.058"/><path fill="#32889a" d="m53.316 747.738-1.418-32.398-10.554 32.398 3.46 32.438 8.512-32.438M71.469 759.336l9.207-24.832-16.34 13.078-17.004 42.16 24.137-30.406M74.215 766.613l22.14-6.926-17.78 17.583-26.294 17.949 21.934-28.606M21.43 747.738l1.418-32.398 10.558 32.398-4.12 29.793-7.856-29.793M3.281 759.336l-9.207-24.832 16.336 13.078 17.008 42.16-24.137-30.406M.535 766.613l-22.14-6.926 17.78 17.583 26.294 17.949L.535 766.613"/><path fill="#2b738e" d="M49.133 772.383v-31.828l-5.578 19.133-12.137 2.437-5.61-21.57v25.172L4.817 749.199l5.93 23.844 1.371 4.488-16.988-7.738L7.44 784.965l21.797 15.91 29.11-9.203 22.328-22.383-15.317 5.594 4.57-24.922-20.796 22.422"/><path fill="#3da9ae" d="m37.375 810.074 14.523-60.23 20.997-33.996-9.774 42.765-19.144 51.461h-6.602"/><g clip-path="url(#j)"><path fill="#3da9ae" d="m109.734 772.383-34.148 3.304-38.211 34.387h6.602l35.039-24.867 30.718-12.824"/></g><path fill="#3da9ae" d="m37.375 810.074-14.527-60.23-20.996-33.996 9.777 42.765 19.144 51.461h6.602"/><path fill="#3da9ae" d="m-34.984 772.383 34.148 3.304 38.211 34.387h-6.602l-35.039-24.867-30.718-12.824"/><path fill="#3799a2" d="m46.625 798.285 13.02-49.164-17.43 49.164h-8.809l-19.449-50.531 14.164 48.348-2.176 5.445-27.308-19.832-24.149-6.403 23.422 9.25 27.238 20 26.38 1.524 27-23.274 20.335-7.101-21.789 5.64-28.324 20.395-2.125-3.46"/><path fill="#66ccc6" d="m37.375 810.074 27.559-47.34 32.304-26.718-24.66 37.437-28.601 36.621h-6.602"/><path fill="#66ccc6" d="m102.484 806.77-33.89-3.254-24.617 6.558h-6.602l31.52-18.402 33.59 15.098"/><g clip-path="url(#k)"><path fill="#66ccc6" d="m37.375 697.574-9.254 62.574 2.652 49.926h13.204l2.648-49.926-9.25-62.574"/></g><path fill="#66ccc6" d="m37.375 810.074-27.559-47.34-32.304-26.718 24.66 37.437 28.601 36.621h6.602"/><path fill="#66ccc6" d="m-27.742 806.77 33.898-3.254 24.617 6.558h6.602L5.852 791.672l-33.594 15.098"/><path fill="#43bdba" d="m43.977 808.75 24.906-8.793 23.062 4.066-23.32-6.996-22.98 9.063 25.605-33.707 17.54-26.61-21.485 25.286-24.645 34.12-3.215-5.07-.738-12.004-1.332-39.078-1.336 38.895-.777 12.355-2.977 4.887-21.539-30.324-21.305-23.55 17.344 25.362 22.828 29.664-24.797-9.738-25.5 9.004 26.16-5.414 26.587 8.64 11.914-.058"/><path fill="#32889a" d="m198.383 768.29-1.418-32.4-10.555 32.4 3.461 32.437 8.512-32.438M216.535 779.887l9.207-24.832-16.336 13.074-17.008 42.164 24.137-30.406M219.281 787.164l22.14-6.926-17.78 17.578-26.293 17.954 21.933-28.606M166.496 768.29l1.418-32.4 10.559 32.4-4.121 29.792-7.856-29.793M148.348 779.887l-9.207-24.832 16.336 13.074 17.007 42.164-24.136-30.406M145.602 787.164l-22.141-6.926 17.781 17.578 26.293 17.954-21.933-28.606"/><path fill="#2b738e" d="M194.2 792.934v-31.829l-5.579 19.133-12.137 2.438-5.609-21.57v25.171l-20.992-16.527 5.93 23.844 1.37 4.488-16.988-7.738 12.317 15.172 21.793 15.906 29.11-9.2 22.327-22.386-15.316 5.598 4.57-24.922-20.797 22.422"/><path fill="#3da9ae" d="m182.441 830.625 14.524-60.23 20.996-33.997-9.774 42.766-19.144 51.461h-6.602"/><g clip-path="url(#l)"><path fill="#3da9ae" d="m254.8 792.934-34.148 3.304-38.21 34.387h6.601l35.039-24.867 30.719-12.824"/></g><path fill="#3da9ae" d="m182.441 830.625-14.527-60.23-20.996-33.997 9.777 42.766 19.145 51.461h6.601"/><g clip-path="url(#m)"><path fill="#3da9ae" d="m110.082 792.934 34.148 3.304 38.211 34.387h-6.601l-35.04-24.867-30.718-12.824"/></g><path fill="#3799a2" d="m191.695 818.836 13.016-49.164-17.43 49.164h-8.808l-19.45-50.531 14.165 48.347-2.176 5.446-27.309-19.832-24.148-6.403 23.422 9.246 27.238 20 26.379 1.528 27-23.278 20.336-7.097-21.79 5.64-28.324 20.395-2.12-3.461"/><path fill="#66ccc6" d="M182.441 830.625 210 783.281l32.305-26.715-24.66 37.438-28.602 36.621h-6.602"/><g clip-path="url(#n)"><path fill="#66ccc6" d="m182.441 718.125-9.254 62.574 2.653 49.926h13.203l2.652-49.926-9.254-62.574"/></g><path fill="#66ccc6" d="m182.441 830.625-27.558-47.344-32.305-26.715 24.66 37.438 28.602 36.621h6.601"/><path fill="#43bdba" d="m189.043 829.3 24.906-8.792 23.063 4.066-23.32-6.996-22.981 9.063 25.605-33.707 17.54-26.61-21.485 25.285-24.644 34.121-3.215-5.07-.739-12.004-1.332-39.078-1.336 38.895-.777 12.355-2.976 4.887-21.54-30.324-21.304-23.551 17.344 25.363 22.828 29.664-24.797-9.742-25.5 9.008 26.16-5.418 26.586 8.644 11.914-.058"/></svg>