<svg xmlns="http://www.w3.org/2000/svg" width="1920" viewBox="0 0 1440 810" height="1080" version="1.0"><path fill="#10372a" d="M1476.746 680.89v298.626h-151.144c-14.067-4.692-28.13-9.762-42.192-14.453-172.148-57.247-356.484-65.13-538.008-70.196-220.336-6.008-440.863-8.824-661.39-8.07-19.504 0-40.133 0-57.57-9.012-17.63-9.012-30.755-29.656-24.38-48.238 5.25-15.016 20.442-23.461 34.692-30.406 105.387-50.868 220.152-82.211 336.793-92.91 3.375-.376 6.562-.75 9.937-.938-.375-.188-.937-.375-1.312-.75-.75-1.316-1.125-3.191-.188-4.32.938-1.125 2.25-1.313 3.563-1.5 6.187-.938 12.379.562 17.629 3.941-1.5-1.312-1.317-3.941 0-5.254 1.5-1.316 3.75-1.5 5.625-.562 1.687.75 3 2.629 3.562 4.504 2.438-.75 3.938-3.192 5.438-5.258 1.5-2.063 3.562-4.317 6.187-4.13 2.442 0 4.317 2.63 4.317 5.071 0 2.25-1.317 4.317-3.004 5.82 63.758-2.632 127.52.938 190.523 11.07 19.504 3.005 38.82 6.946 58.32 10.888-.374-3.38.563-7.133 3.188-8.633 5.438-3.38 10.129 7.32 12.004 10.886-1.125-1.879-.938-4.504.562-6.007 1.5-1.688 4.125-2.067 6-.75 1.688 1.316 2.063 4.129.75 5.629 1.5-.938 3-1.875 4.688-2.25 1.691-.375 3.75-.188 4.875 1.125 1.316 1.316 1.5 3.566 0 4.69a36.808 36.808 0 0 1 19.504 3.755c1.312.754 2.625 1.879 2.437 3.379 74.45 17.082 148.707 35.289 224.84 39.605 49.508 2.817 99.012-.375 147.957-7.32-1.875-1.5-3.75-3.004-5.066-4.317-1.684-1.69-3.184-4.69-1.309-6.195.938-.75 2.25-.75 3.375-.562 3.375.562 6.563 1.875 9.375 3.566-1.875-1.879-2.25-5.629 0-7.508 2.063-1.879 5.625-1.125 7.5.938a19.733 19.733 0 0 1 .375-16.89c1.504-3.005 4.88-6.009 8.067-4.505 1.875.938 2.625 3 3.187 5.067 1.688 6.004 1.688 12.386.188 18.394 3-3.004 7.312-4.691 11.625-4.691.75 2.812-1.125 6.191-3.938 6.941 1.688-.562 3.375-1.125 5.25-.937 1.688.187 3.563 1.312 3.938 3.004v.75c80.449-15.016 159.77-39.227 237.968-63.817 6.563-2.066 13.125-4.129 19.692-6.008-4.317.192-8.817.38-13.13-.187-2.25-.188-4.874-1.125-5.624-3.192-.375-1.687.562-3.562 1.687-4.878 4.875-6.004 12.188-9.946 19.692-11.075 7.687-.937 15.562.942 21.937 5.446-1.125-2.254-2.062-4.504-2.25-6.946 0-2.441.75-4.879 2.813-6.383 3-2.253 7.691-.937 10.129 2.067 2.625 2.816 3.562 6.57 4.312 10.32.75-2.437 1.688-5.066 3.375-7.129 1.688-2.066 4.5-3.566 7.125-2.629 3.563 1.125 4.688 5.63 4.5 9.383-.187 1.504-.562 3.004-.75 4.504 4.313-.375 8.817-.937 13.13-.937 2.808.004 5.812.191 8.624.375zm0 0"/><path fill="#1c6049" d="M1476.746 894.676v84.84h-1513.5V740.203c46.879-30.781 106.512-45.047 166.52-50.3-2.25-1.688-4.313-3.567-6.188-5.446-2.437-2.625-4.691-6.566-2.816-9.383 2.066-3.004 6.754-2.066 9.566.188 2.813 2.25 4.875 5.445 8.063 6.945-.75-3.004-1.313-6.945 1.312-8.445 2.063-1.13 4.875 0 6 2.062 1.317 1.88 1.504 4.317 1.692 6.758 3.75-5.07 9.562-8.445 15.75-9.574 3.187-.563 7.125 0 8.25 3.004.937 2.816-1.5 5.82-3.563 7.695-1.687 1.504-3.562 2.629-5.25 4.133 33.941-1.317 67.133-.192 97.512 2.25 38.066 3.191 75.949 8.633 113.453 16.14 11.437 2.067 22.879 4.508 34.316 7.133 53.633 12.2 106.512 27.59 159.02 43.922 0-2.066.187-4.129.562-6.008.563-2.062 1.5-3.941 3.375-4.879 2.438-.937 5.25.75 6.375 3.192 1.317 2.254 1.125 4.879.938 7.508 0-4.13 5.062-7.133 8.629-5.07 3.562 2.253 3.187 8.449-.567 10.136 5.254-2.441 10.88-4.504 16.692-5.254 5.812-.562 11.812 0 16.879 3.004 2.25 1.125 4.5 3.379 3.937 5.816-.75 3.004-4.875 3.38-8.066 3.192-3.75-.188-7.5 0-11.25.187 75.011 24.024 149.644 48.989 225.777 69.07 139.145 36.602 282.41 56.497 426.242 58.938-.562-.375-1.312-.562-1.875-1.125-1.5-.937-3-2.441-2.625-4.129.563-1.879 3-2.441 4.875-2.066 3.75.75 6.563 4.129 9.188 7.133-2.438-3.38-3.188-8.258-1.5-12.2.75-2.066 2.625-4.128 4.687-3.566 1.13.375 1.875 1.313 2.438 2.254 1.687 3 2.816 6.191 3 9.57 1.687-3.941 5.816-6.758 10.125-6.758 1.125 0 2.254.188 2.816 1.125.563.942.375 2.067-.187 2.817-.563.937-1.313 1.504-2.25 2.066 3.187-1.312 6.937-1.312 9.937 0 .938.375 1.688.938 1.688 1.88 0 .75-.938 1.124-1.688 1.495-1.125.567-2.437.942-3.562 1.504 34.879-.187 69.757-.75 104.636-3 14.254-.754 28.692-1.879 43.13-1.879-.934-.937-1.684-1.879-2.063-3.004-1.125-3.004-.188-7.132 2.812-8.257 2.067-.75 4.504.187 6.004 1.875 1.688 1.503 2.621 3.566 3.563 5.632-.563-1.504-.375-3.566.75-4.695 1.125-1.312 3.375-1.687 4.687-.562 1.313.937 1.688 3.191.375 4.507 3.563-2.066 7.875-2.816 11.817-2.066 1.687.375 3.562 1.129 3.562 2.816.184 1.5-1.312 2.625-2.629 3.38-.75.562-1.875.937-2.625 1.312 3.754.375 7.504.75 11.254 1.5zm0 0"/></svg>