<svg id="visual" viewBox="0 0 960 540" width="960" height="540" xmlns="http://www.w3.org/2000/svg" xmlns:xlink="http://www.w3.org/1999/xlink" version="1.1"><rect x="0" y="0" width="960" height="540" fill="#001220"></rect><path d="M0 199L22.8 188.7C45.7 178.3 91.3 157.7 137 161.7C182.7 165.7 228.3 194.3 274 195.8C319.7 197.3 365.3 171.7 411.2 157.7C457 143.7 503 141.3 548.8 153.7C594.7 166 640.3 193 686 197.8C731.7 202.7 777.3 185.3 823 185C868.7 184.7 914.3 201.3 937.2 209.7L960 218L960 0L937.2 0C914.3 0 868.7 0 823 0C777.3 0 731.7 0 686 0C640.3 0 594.7 0 548.8 0C503 0 457 0 411.2 0C365.3 0 319.7 0 274 0C228.3 0 182.7 0 137 0C91.3 0 45.7 0 22.8 0L0 0Z" fill="#0a5a3f"></path><path d="M0 165L22.8 156.2C45.7 147.3 91.3 129.7 137 124C182.7 118.3 228.3 124.7 274 133.7C319.7 142.7 365.3 154.3 411.2 156.2C457 158 503 150 548.8 152.8C594.7 155.7 640.3 169.3 686 167.5C731.7 165.7 777.3 148.3 823 138.3C868.7 128.3 914.3 125.7 937.2 124.3L960 123L960 0L937.2 0C914.3 0 868.7 0 823 0C777.3 0 731.7 0 686 0C640.3 0 594.7 0 548.8 0C503 0 457 0 411.2 0C365.3 0 319.7 0 274 0C228.3 0 182.7 0 137 0C91.3 0 45.7 0 22.8 0L0 0Z" fill="#0e6649"></path><path d="M0 102L22.8 100.3C45.7 98.7 91.3 95.3 137 91.5C182.7 87.7 228.3 83.3 274 87.5C319.7 91.7 365.3 104.3 411.2 104.5C457 104.7 503 92.3 548.8 95.3C594.7 98.3 640.3 116.7 686 125.5C731.7 134.3 777.3 133.7 823 124.3C868.7 115 914.3 97 937.2 88L960 79L960 0L937.2 0C914.3 0 868.7 0 823 0C777.3 0 731.7 0 686 0C640.3 0 594.7 0 548.8 0C503 0 457 0 411.2 0C365.3 0 319.7 0 274 0C228.3 0 182.7 0 137 0C91.3 0 45.7 0 22.8 0L0 0Z" fill="#127353"></path><path d="M0 83L22.8 82.7C45.7 82.3 91.3 81.7 137 82.7C182.7 83.7 228.3 86.3 274 88.7C319.7 91 365.3 93 411.2 88.3C457 83.7 503 72.3 548.8 70.3C594.7 68.3 640.3 75.7 686 74.2C731.7 72.7 777.3 62.3 823 57.3C868.7 52.3 914.3 52.7 937.2 52.8L960 53L960 0L937.2 0C914.3 0 868.7 0 823 0C777.3 0 731.7 0 686 0C640.3 0 594.7 0 548.8 0C503 0 457 0 411.2 0C365.3 0 319.7 0 274 0C228.3 0 182.7 0 137 0C91.3 0 45.7 0 22.8 0L0 0Z" fill="#16805d"></path><path d="M0 31L22.8 31.3C45.7 31.7 91.3 32.3 137 33C182.7 33.7 228.3 34.3 274 37.3C319.7 40.3 365.3 45.7 411.2 49.5C457 53.3 503 55.7 548.8 57C594.7 58.3 640.3 58.7 686 59.8C731.7 61 777.3 63 823 62C868.7 61 914.3 57 937.2 55L960 53L960 0L937.2 0C914.3 0 868.7 0 823 0C777.3 0 731.7 0 686 0C640.3 0 594.7 0 548.8 0C503 0 457 0 411.2 0C365.3 0 319.7 0 274 0C228.3 0 182.7 0 137 0C91.3 0 45.7 0 22.8 0L0 0Z" fill="#1a8d67"></path></svg>