<svg id="visual" viewBox="0 0 960 540" width="960" height="540" xmlns="http://www.w3.org/2000/svg" xmlns:xlink="http://www.w3.org/1999/xlink" version="1.1"><path d="M0 214L137 218L274 159L411 209L549 171L686 195L823 214L960 222L960 0L823 0L686 0L549 0L411 0L274 0L137 0L0 0Z" fill="#0f4030"></path><path d="M0 128L137 162L274 176L411 178L549 137L686 133L823 108L960 181L960 0L823 0L686 0L549 0L411 0L274 0L137 0L0 0Z" fill="#19513e"></path><path d="M0 134L137 79L274 120L411 130L549 124L686 119L823 101L960 138L960 0L823 0L686 0L549 0L411 0L274 0L137 0L0 0Z" fill="#23624d"></path><path d="M0 64L137 101L274 103L411 69L549 97L686 71L823 105L960 99L960 0L823 0L686 0L549 0L411 0L274 0L137 0L0 0Z" fill="#2d745c"></path><path d="M0 41L137 55L274 61L411 27L549 42L686 28L823 46L960 26L960 0L823 0L686 0L549 0L411 0L274 0L137 0L0 0Z" fill="#37876c"></path></svg>