<svg xmlns="http://www.w3.org/2000/svg" width="1920" viewBox="0 0 1440 810" height="1080" version="1.0"><defs><clipPath id="a"><path d="M457 506h526v303.785H457zm0 0"/></clipPath><clipPath id="b"><path d="M432 489.535h576v320.25H432zm0 0"/></clipPath><clipPath id="c"><path d="M444 561.875h552v247.91H444zm0 0"/></clipPath></defs><g clip-path="url(#a)"><path fill="#f59b12" d="M982.813 775.938 769.19 809.797h-97.808l-214.2-33.86v-26.48h24.446l24.437-26.473v-26.472h24.446l24.437-26.473v-26.473h24.446l24.437-26.476v-26.473h26.145l22.378-28.687v-55.715H788.22v55.715l21.804 28.687h26.141v26.473l24.441 26.476h24.442v26.473l24.441 26.473h24.442v26.472l24.441 26.473h24.442v26.48"/></g><path fill="#ad521e" d="M750.332 542.242v19.688h14.856v-19.688zm-74.945 19.688h14.855v-19.688h-14.855zm28.375-19.688h33.05v19.688h-33.05v-19.688"/><g clip-path="url(#b)"><path fill="#f9c00d" d="M671.383 614.219h97.808v-20.73h-97.808zm0 52.949h97.808v-20.73h-97.808zm0 105.898h97.808v-20.734h-97.808zm0-52.945h97.808v-20.738h-97.808zm124.183-196.223H645.008v13.676h150.558zm0-34.363H645.008v19.348h150.558zm-124.183 151.16h97.808v2.871h91.414V617.09h-91.414v2.87h-97.808v-2.87h-91.988v26.476h91.988zm0 105.899h97.808v2.863h189.18v-26.473h-189.18v2.875h-97.808v-2.875H481.629v26.473h189.754zm97.808 29.343v2.868h-97.808v-2.867H432.746v33.859h574.508v-33.86zm-97.808-82.296h97.808v2.87h140.297V670.04H769.191v2.871h-97.808v-2.87H530.512v26.472h140.87zm0-103.024h-41.406V561.93h180.046v28.687h-40.832v-2.87h-97.808v2.87"/></g><g clip-path="url(#c)"><path fill="#e5ee4c" d="M769.191 809.797h19.028V561.93H769.19zm-116.836 0h19.028V561.93h-19.028zM450.48 786.559a6.312 6.312 0 0 0-6.32 6.312c0 3.477 2.828 6.305 6.32 6.305a6.31 6.31 0 1 0 0-12.617zm49.008 0a6.312 6.312 0 0 0-6.32 6.312c0 3.477 2.828 6.305 6.32 6.305 3.492 0 6.32-2.828 6.32-6.305a6.312 6.312 0 0 0-6.32-6.312zm49.004 0a6.312 6.312 0 0 0-6.32 6.312c0 3.477 2.828 6.305 6.32 6.305 3.48 0 6.32-2.828 6.32-6.305 0-3.492-2.84-6.312-6.32-6.312zm49.008 0c-3.496 0-6.332 2.82-6.332 6.312 0 3.477 2.836 6.305 6.332 6.305 3.477 0 6.32-2.828 6.32-6.305 0-3.492-2.843-6.312-6.32-6.312zm46.059 0a6.31 6.31 0 1 0 0 12.617c3.492 0 6.32-2.828 6.32-6.305a6.312 6.312 0 0 0-6.32-6.312zm153.851 0c-3.484 0-6.32 2.82-6.32 6.312 0 3.477 2.836 6.305 6.32 6.305 3.492 0 6.32-2.828 6.32-6.305a6.312 6.312 0 0 0-6.32-6.312zm45.094 0a6.31 6.31 0 1 0 0 12.617c3.492 0 6.32-2.828 6.32-6.305a6.312 6.312 0 0 0-6.32-6.312zm49.004 0a6.312 6.312 0 0 0-6.32 6.312c0 3.477 2.828 6.305 6.32 6.305 3.492 0 6.32-2.828 6.32-6.305a6.312 6.312 0 0 0-6.32-6.312zm49.004 0a6.312 6.312 0 0 0-6.32 6.312c0 3.477 2.828 6.305 6.32 6.305 3.484 0 6.32-2.828 6.32-6.305 0-3.492-2.836-6.312-6.32-6.312zm55.316 6.312c0 3.477-2.828 6.305-6.32 6.305-3.492 0-6.32-2.828-6.32-6.305a6.312 6.312 0 0 1 6.32-6.312c3.492 0 6.32 2.82 6.32 6.312"/></g></svg>